<svg width="63" height="62" viewBox="0 0 63 62" fill="none" xmlns="http://www.w3.org/2000/svg">
<rect x="1" y="0.5" width="61" height="61" rx="30.5" stroke="url(#paint0_linear_7_170)"/>
<rect x="1" y="0.5" width="61" height="61" rx="30.5" stroke="url(#paint1_linear_7_170)"/>
<path d="M19.3941 26.1057C21.3858 28.0974 24.615 28.0974 26.6066 26.1057C26.8514 25.861 27.066 25.5975 27.2506 25.32C28.1644 26.694 29.7266 27.5995 31.5004 27.5995C33.2744 27.5995 34.8368 26.6938 35.7505 25.3195C35.9352 25.5972 36.15 25.8608 36.3949 26.1058C38.3866 28.0974 41.6157 28.0974 43.6074 26.1058C45.5991 24.1141 45.5991 20.8849 43.6074 18.8933L43.1099 18.3957C42.4722 17.7581 41.6074 17.3999 40.7057 17.3999H22.2958C21.394 17.3999 20.5292 17.7581 19.8916 18.3957L19.3941 18.8932C17.4025 20.8849 17.4025 24.114 19.3941 26.1057Z" fill="#AC9020"/>
<path d="M19.6004 29.3547C22.028 30.5591 24.9621 30.3946 27.2514 28.8614C28.4659 29.674 29.9274 30.1495 31.5004 30.1495C33.0735 30.1495 34.5352 29.6739 35.7498 28.8612C38.0389 30.3945 40.9728 30.5591 43.4004 29.3551V42.0499H43.8254C44.5296 42.0499 45.1004 42.6207 45.1004 43.3249C45.1004 44.0291 44.5296 44.5999 43.8254 44.5999H36.1754C35.4712 44.5999 34.9004 44.0291 34.9004 43.3249V37.3749C34.9004 36.6707 34.3296 36.0999 33.6254 36.0999H29.3754C28.6712 36.0999 28.1004 36.6707 28.1004 37.3749V43.3249C28.1004 44.0291 27.5296 44.5999 26.8254 44.5999H19.1754C18.4712 44.5999 17.9004 44.0291 17.9004 43.3249C17.9004 42.6207 18.4712 42.0499 19.1754 42.0499H19.6004V29.3547Z" fill="#AC9020"/>
<defs>
<linearGradient id="paint0_linear_7_170" x1="-6.25" y1="3.5" x2="62.25" y2="62" gradientUnits="userSpaceOnUse">
<stop stop-color="#AC9020"/>
<stop offset="0.323723" stop-color="#AC9020" stop-opacity="0"/>
</linearGradient>
<linearGradient id="paint1_linear_7_170" x1="74.75" y1="76" x2="2.75" y2="25" gradientUnits="userSpaceOnUse">
<stop stop-color="#AC9020"/>
<stop offset="0.576615" stop-color="#AC9020" stop-opacity="0"/>
</linearGradient>
</defs>
</svg>
