<svg width="201" height="200" viewBox="0 0 201 200" fill="none" xmlns="http://www.w3.org/2000/svg">
<g clip-path="url(#clip0_58_224)">
<g clip-path="url(#clip1_58_224)">
<path d="M13.4329 128.274C14.6159 128.274 15.5758 127.314 15.5758 126.131V125.174C15.5758 123.991 14.6159 123.031 13.4329 123.031C12.2499 123.031 11.29 123.991 11.29 125.174V126.131C11.29 127.314 12.2499 128.274 13.4329 128.274Z" fill="#C08735"/>
<path d="M11.29 164.616C11.29 165.799 12.2499 166.759 13.4329 166.759C14.6159 166.759 15.5758 165.799 15.5758 164.616V133.572C15.5758 132.389 14.6159 131.429 13.4329 131.429C12.2499 131.429 11.29 132.389 11.29 133.572V164.616Z" fill="#C08735"/>
<path d="M138.79 35.6147C137.899 34.8335 136.548 34.92 135.764 35.81C134.984 36.7001 135.072 38.0533 135.96 38.8345L160.748 60.5868C161.636 61.3655 162.99 61.2828 163.772 60.3915C164.554 59.5015 164.464 58.1481 163.578 57.3669L138.79 35.6147Z" fill="#C08735"/>
<path d="M130.148 28.0337C129.258 27.2579 127.908 27.3445 127.124 28.2345C126.345 29.1246 126.435 30.4778 127.325 31.259L128.862 32.6067C129.766 33.3931 131.113 33.2869 131.887 32.4058C132.665 31.5158 132.576 30.1625 131.686 29.3813L130.148 28.0337Z" fill="#C08735"/>
<path d="M163.103 116.954V110.554H165.588C166.759 110.554 167.731 109.611 167.731 108.411C167.731 107.24 166.759 106.269 165.588 106.269H161.731V91.44H168.216C174.273 91.44 177.131 83.9257 172.559 79.9256L96.3306 13.04C93.8734 10.8685 90.1306 10.8685 87.6449 13.04L55.6164 41.1542V32.7828H58.6165C60.4734 32.7828 61.9878 31.2686 61.9878 29.3828V19.3541C61.9878 17.4685 60.4734 15.9541 58.6165 15.9541H25.045C23.1878 15.9541 21.6737 17.4685 21.6737 19.3541V29.3828C21.6737 31.2685 23.1878 32.7828 25.045 32.7828H28.0736V65.3542L11.4736 79.9257C6.93067 83.9257 9.75921 91.44 15.8164 91.44H22.3021V184.125C20.0734 184.183 17.7878 184.211 15.5593 184.268C14.3592 184.325 13.445 185.297 13.4735 186.468C13.5021 187.64 14.445 188.555 15.6164 188.555H15.6449C17.0165 188.525 156.188 188.611 156.188 188.583C176.016 188.44 192.073 172.268 192.073 152.383C192.073 134.897 179.616 120.297 163.103 116.954ZM25.9593 28.497V20.2398H57.7021V28.497H25.9593ZM51.3306 32.7828V44.9256L32.3593 61.5828V32.7828H51.3306ZM15.8164 87.1542C13.7021 87.1542 12.7021 84.5256 14.3021 83.1256L90.4734 16.24C91.3592 15.497 92.6449 15.497 93.5021 16.24L169.731 83.1256C171.331 84.5256 170.331 87.1542 168.216 87.1542H15.8164ZM93.1592 184.04H49.6736V119.697C49.6736 117.897 51.1308 116.468 52.9306 116.468H89.9306C91.702 116.468 93.1592 117.897 93.1592 119.697V184.04ZM97.4449 184.04V119.697C97.4449 115.554 94.0736 112.183 89.9306 112.183H52.9306C48.7878 112.183 45.3878 115.554 45.3878 119.697V184.04H26.5878V91.4684H157.445V106.269H146.103C144.901 106.269 143.959 107.24 143.959 108.411C143.959 109.611 144.901 110.554 146.103 110.554H148.701V116.954C132.131 120.326 119.731 135.211 119.731 152.383V152.411C119.759 165.925 127.416 177.925 138.673 184.04H97.4449ZM158.816 110.554V116.354C157.273 116.211 154.673 116.211 152.988 116.354V110.554H158.816ZM155.931 184.297C138.103 184.297 124.016 169.668 124.016 152.383C124.016 134.897 138.473 120.24 156.473 120.526C173.616 120.84 187.788 134.84 187.788 152.383C187.788 169.983 173.501 184.297 155.931 184.297Z" fill="#181A20"/>
<path d="M158.817 110.554V116.354C157.275 116.212 154.675 116.212 152.989 116.354V110.554H158.817Z" fill="#DDDDDD"/>
<path d="M25.96 20.2401H57.7028V28.4973H25.96V20.2401Z" fill="url(#paint0_linear_58_224)"/>
<path d="M51.3307 32.7828V44.9258L32.3594 61.583V32.7828H51.3307Z" fill="url(#paint1_linear_58_224)"/>
<path d="M89.9309 116.468H52.9309C51.131 116.468 49.6738 117.897 49.6738 119.697V184.04H93.1594V119.697C93.1594 117.897 91.7024 116.468 89.9309 116.468ZM84.531 152.497H81.6166C80.4168 152.497 79.4738 151.555 79.4738 150.355C79.4738 149.183 80.4168 148.211 81.6166 148.211H84.531C85.7024 148.211 86.6738 149.183 86.6738 150.355C86.6738 151.555 85.7024 152.497 84.531 152.497Z" fill="url(#paint2_linear_58_224)"/>
<path d="M92.0464 41.697C82.875 41.697 75.418 49.1541 75.418 58.3257C75.418 67.4685 82.875 74.897 92.0464 74.897C101.189 74.897 108.618 67.4685 108.618 58.3257C108.618 49.1541 101.189 41.697 92.0464 41.697ZM92.0464 70.6113C85.2465 70.6113 79.7037 65.097 79.7037 58.3257C79.7037 51.5257 85.2465 45.9828 92.0464 45.9828C98.818 45.9828 104.332 51.5256 104.332 58.3257C104.332 65.097 98.818 70.6113 92.0464 70.6113Z" fill="#181A20"/>
<path d="M104.331 58.3256C104.331 65.0971 98.8164 70.6113 92.0448 70.6113C85.245 70.6113 79.7021 65.0971 79.7021 58.3256C79.7021 51.5256 85.245 45.9827 92.0448 45.9827C98.8164 45.9827 104.331 51.5256 104.331 58.3256Z" fill="#DDDDDD"/>
<path d="M86.6746 150.355C86.6746 151.555 85.7031 152.497 84.5318 152.497H81.6174C80.4175 152.497 79.4746 151.555 79.4746 150.355C79.4746 149.183 80.4175 148.211 81.6174 148.211H84.5318C85.7031 148.211 86.6746 149.183 86.6746 150.355Z" fill="#181A20"/>
<path d="M128.21 119.035C128.671 119.035 129.137 118.887 129.53 118.578C129.859 118.321 130.194 118.064 130.532 117.819C131.489 117.121 131.698 115.782 131.003 114.825C130.306 113.868 128.966 113.653 128.009 114.353C127.627 114.632 127.253 114.917 126.885 115.207C125.953 115.935 125.791 117.283 126.522 118.215C126.944 118.754 127.574 119.035 128.21 119.035Z" fill="#C08735"/>
<path d="M111.399 145.043C111.55 145.076 111.701 145.089 111.851 145.089C112.839 145.089 113.729 144.401 113.944 143.396C115.562 135.844 119.223 128.843 124.533 123.154C125.342 122.289 125.295 120.933 124.43 120.126C123.565 119.317 122.211 119.365 121.402 120.229C115.562 126.488 111.533 134.189 109.753 142.497C109.505 143.656 110.241 144.795 111.399 145.043Z" fill="#C08735"/>
<path d="M155.922 128.101C154.738 128.101 153.78 129.061 153.78 130.244C153.78 131.427 154.738 132.386 155.922 132.386C166.952 132.386 175.925 141.36 175.925 152.39C175.925 163.43 166.952 172.415 155.922 172.415C148.882 172.415 142.485 168.82 138.816 162.799C138.198 161.792 136.882 161.471 135.869 162.086C134.858 162.702 134.538 164.022 135.154 165.032C139.61 172.339 147.376 176.7 155.922 176.7C169.314 176.7 180.21 165.794 180.21 152.39C180.21 138.996 169.314 128.101 155.922 128.101Z" fill="#181A20"/>
<path d="M158.046 148.811V140.211C158.046 139.04 157.102 138.068 155.903 138.068C154.731 138.068 153.759 139.04 153.759 140.211V148.811C150.731 149.725 148.502 152.525 148.502 155.868C148.502 159.955 151.817 163.268 155.903 163.268C159.989 163.268 163.331 159.955 163.331 155.868C163.331 152.525 161.103 149.725 158.046 148.811ZM155.903 158.983C154.189 158.983 152.789 157.583 152.789 155.868C152.789 154.155 154.189 152.725 155.903 152.725C157.617 152.725 159.046 154.155 159.046 155.868C159.046 157.583 157.617 158.983 155.903 158.983Z" fill="#181A20"/>
<path d="M159.045 155.868C159.045 157.583 157.616 158.983 155.903 158.983C154.188 158.983 152.788 157.583 152.788 155.868C152.788 154.153 154.188 152.725 155.903 152.725C157.616 152.725 159.045 154.153 159.045 155.868Z" fill="#DDDDDD"/>
</g>
</g>
<defs>
<linearGradient id="paint0_linear_58_224" x1="41.8314" y1="20.2401" x2="41.8314" y2="28.4973" gradientUnits="userSpaceOnUse">
<stop stop-color="#DDDDDD" stop-opacity="0"/>
<stop offset="1" stop-color="#DDDDDD"/>
</linearGradient>
<linearGradient id="paint1_linear_58_224" x1="41.845" y1="32.7828" x2="41.845" y2="61.583" gradientUnits="userSpaceOnUse">
<stop stop-color="#DDDDDD" stop-opacity="0"/>
<stop offset="1" stop-color="#DDDDDD"/>
</linearGradient>
<linearGradient id="paint2_linear_58_224" x1="71.4166" y1="116.468" x2="71.4166" y2="184.04" gradientUnits="userSpaceOnUse">
<stop stop-color="#DDDDDD" stop-opacity="0"/>
<stop offset="1" stop-color="#DDDDDD"/>
</linearGradient>
<clipPath id="clip0_58_224">
<rect width="200" height="200" fill="white" transform="translate(0.654297)"/>
</clipPath>
<clipPath id="clip1_58_224">
<rect width="200" height="200" fill="white" transform="translate(0.654297)"/>
</clipPath>
</defs>
</svg>
