<svg width="201" height="201" viewBox="0 0 201 201" fill="none" xmlns="http://www.w3.org/2000/svg">
<g clip-path="url(#clip0_58_256)">
<g clip-path="url(#clip1_58_256)">
<path d="M76.5556 98.3008H46.0617C44.8788 98.3008 43.9189 99.2606 43.9189 100.444V134.202C43.9189 135.385 44.8788 136.345 46.0617 136.345C47.2448 136.345 48.2047 135.385 48.2047 134.202V102.587H76.5556C77.7387 102.587 78.6985 101.627 78.6985 100.444C78.6985 99.2606 77.7387 98.3008 76.5556 98.3008Z" fill="#C08735"/>
<path d="M46.0617 140.103C44.8788 140.103 43.9189 141.063 43.9189 142.246V145.65C43.9189 146.833 44.8788 147.793 46.0617 147.793C47.2448 147.793 48.2047 146.833 48.2047 145.65V142.246C48.2047 141.063 47.2448 140.103 46.0617 140.103Z" fill="#C08735"/>
<path d="M166.781 55.399C167.377 55.399 167.971 55.1534 168.393 54.6707C169.175 53.7807 169.087 52.4274 168.196 51.6462L143.895 30.3208C143.007 29.5395 141.651 29.6288 140.872 30.5162C140.091 31.4062 140.179 32.7595 141.068 33.5407L165.369 54.866C165.776 55.2231 166.281 55.399 166.781 55.399Z" fill="#C08735"/>
<path d="M136.592 28.9089C137.188 28.9089 137.779 28.6633 138.203 28.1807C138.984 27.2907 138.896 25.9373 138.008 25.1561L136.94 24.2187C136.051 23.4373 134.699 23.5267 133.916 24.4139C133.135 25.304 133.223 26.6572 134.111 27.4384L135.179 28.376C135.585 28.7331 136.089 28.9089 136.592 28.9089Z" fill="#C08735"/>
<path d="M167.306 114.125V91.4105H178.734C184.934 91.4105 187.821 83.7248 183.164 79.6391L104.421 10.5534C101.906 8.32479 98.0778 8.32479 95.5634 10.5534L62.3349 39.6961V30.8105H65.5065C67.3921 30.8105 68.9349 29.2963 68.9349 27.3819V17.0104C68.9349 15.1248 67.3921 13.582 65.5065 13.582H30.8493C28.9635 13.582 27.4207 15.1248 27.4207 17.0104V27.3819C27.4207 29.2963 28.9635 30.8105 30.8493 30.8105H34.0208V64.5533L16.8778 79.6391C12.1921 83.7248 15.1063 91.4105 21.3063 91.4105H32.7635V187.439H26.7065C25.5349 187.439 24.5635 188.41 24.5635 189.582C24.5635 190.753 25.5349 191.725 26.7065 191.725H173.336C174.534 191.725 175.478 190.753 175.478 189.582C175.478 188.41 174.534 187.439 173.336 187.439H167.306V164.439C177.764 160.867 185.334 150.953 185.334 139.267C185.334 127.611 177.764 117.696 167.306 114.125ZM31.7063 26.5248V17.8677H64.6492V26.5248H31.7063ZM58.0491 30.8391V43.4676L38.3063 60.7819V30.8391H58.0491ZM21.3063 87.1248C19.0493 87.1248 17.9922 84.3247 19.6778 82.8391L98.3921 13.7535C98.8493 13.3534 99.4208 13.1534 99.9921 13.1534C100.563 13.1534 101.135 13.3534 101.592 13.7535L180.334 82.8391C182.021 84.3247 180.992 87.1248 178.734 87.1248H21.3063ZM163.021 187.439C111.192 187.439 114.278 187.439 37.0493 187.439V91.4105H163.021V113.039C151.649 111.182 139.849 117.01 134.678 127.982H102.163V118.525C102.163 113.525 98.135 109.496 93.135 109.496C88.1921 109.496 84.1349 113.553 84.1349 118.525V160.067C84.1349 164.982 88.1064 169.097 93.135 169.097C98.135 169.097 102.163 165.039 102.163 160.067V150.582H134.678C139.192 160.154 148.734 165.897 158.734 165.897C160.106 165.897 161.878 165.725 163.021 165.525V187.439ZM133.049 146.297H88.4206V132.268C88.4206 132.268 93.7349 132.296 133.049 132.268C131.935 136.41 131.763 141.525 133.049 146.297ZM97.8777 150.582V160.067C97.8777 162.667 95.7634 164.81 93.135 164.81C90.5634 164.81 88.4206 162.697 88.4206 160.067V150.582H97.8777ZM88.4206 127.982V118.525C88.4206 115.896 90.5349 113.782 93.135 113.782C95.7634 113.782 97.8777 115.925 97.8777 118.525V127.982H88.4206ZM158.734 161.61C152.934 161.61 147.678 159.353 143.678 155.725C139.706 152.097 137.049 147.067 136.506 141.525C135.192 128.325 145.678 116.982 158.734 116.982C170.964 116.982 181.049 126.953 181.049 139.267C181.049 151.725 170.849 161.61 158.734 161.61Z" fill="#181A20"/>
<path d="M158.735 116.982C145.679 116.982 135.192 128.325 136.507 141.525C137.05 147.067 139.707 152.097 143.679 155.725C147.678 159.354 152.935 161.61 158.735 161.61C170.85 161.61 181.05 151.725 181.05 139.267C181.05 126.954 170.964 116.982 158.735 116.982ZM164.479 148.81C159.222 148.81 154.964 144.525 154.964 139.297C154.964 134.039 159.222 129.753 164.479 129.753C169.735 129.753 174.022 134.039 174.022 139.297C174.022 144.525 169.735 148.81 164.479 148.81Z" fill="url(#paint0_linear_58_256)"/>
<path d="M97.878 118.525V127.982H88.4209V118.525C88.4209 115.896 90.5352 113.782 93.1352 113.782C95.7637 113.782 97.878 115.925 97.878 118.525Z" fill="#DDDDDD"/>
<path d="M97.878 150.582V160.067C97.878 162.667 95.7637 164.81 93.1352 164.81C90.5637 164.81 88.4209 162.697 88.4209 160.067V150.582H97.878Z" fill="#DDDDDD"/>
<path d="M31.707 17.8691H64.6498V26.5263H31.707V17.8691Z" fill="url(#paint1_linear_58_256)"/>
<path d="M58.0494 30.8391V43.4675L38.3066 60.7819V30.8391H58.0494Z" fill="url(#paint2_linear_58_256)"/>
<path d="M100.022 40.3535C90.7073 40.3535 83.1074 47.9534 83.1074 57.2678C83.1074 66.5821 90.7073 74.1534 100.022 74.1534C109.336 74.1534 116.907 66.5821 116.907 57.2678C116.907 47.9534 109.336 40.3535 100.022 40.3535ZM100.022 69.8676C93.0788 69.8676 87.3932 64.2106 87.3932 57.2678C87.3932 50.2963 93.0788 44.6392 100.022 44.6392C106.964 44.6392 112.622 50.2963 112.622 57.2678C112.622 64.2106 106.964 69.8676 100.022 69.8676Z" fill="#181A20"/>
<path d="M112.621 57.2676C112.621 64.2104 106.964 69.8676 100.021 69.8676C93.0783 69.8676 87.3926 64.2104 87.3926 57.2676C87.3926 50.2961 93.0783 44.639 100.021 44.639C106.964 44.639 112.621 50.2961 112.621 57.2676Z" fill="#DDDDDD"/>
<path d="M113.878 161.743H115.18C116.363 161.743 117.323 160.785 117.323 159.601C117.323 158.418 116.363 157.458 115.18 157.458H113.878C112.695 157.458 111.735 158.418 111.735 159.601C111.735 160.785 112.695 161.743 113.878 161.743Z" fill="#C08735"/>
<path d="M122.469 161.743H134.261C135.445 161.743 136.405 160.785 136.405 159.601C136.405 158.418 135.445 157.458 134.261 157.458H122.469C121.286 157.458 120.326 158.418 120.326 159.601C120.326 160.785 121.286 161.743 122.469 161.743Z" fill="#C08735"/>
<path d="M164.479 129.753C159.221 129.753 154.964 134.039 154.964 139.297C154.964 144.525 159.221 148.81 164.479 148.81C169.735 148.81 174.021 144.525 174.021 139.297C174.021 134.039 169.735 129.753 164.479 129.753ZM164.479 144.525C161.592 144.525 159.249 142.182 159.249 139.297C159.249 136.41 161.592 134.039 164.479 134.039C167.364 134.039 169.735 136.41 169.735 139.297C169.735 142.182 167.364 144.525 164.479 144.525Z" fill="#181A20"/>
</g>
</g>
<defs>
<linearGradient id="paint0_linear_58_256" x1="158.723" y1="116.982" x2="158.723" y2="161.61" gradientUnits="userSpaceOnUse">
<stop stop-color="#DDDDDD" stop-opacity="0"/>
<stop offset="1" stop-color="#DDDDDD"/>
</linearGradient>
<linearGradient id="paint1_linear_58_256" x1="48.1784" y1="17.8691" x2="48.1784" y2="26.5263" gradientUnits="userSpaceOnUse">
<stop stop-color="#DDDDDD" stop-opacity="0"/>
<stop offset="1" stop-color="#DDDDDD"/>
</linearGradient>
<linearGradient id="paint2_linear_58_256" x1="48.1781" y1="30.8391" x2="48.1781" y2="60.7819" gradientUnits="userSpaceOnUse">
<stop stop-color="#DDDDDD" stop-opacity="0"/>
<stop offset="1" stop-color="#DDDDDD"/>
</linearGradient>
<clipPath id="clip0_58_256">
<rect width="200" height="200" fill="white" transform="translate(0.0146484 0.303223)"/>
</clipPath>
<clipPath id="clip1_58_256">
<rect width="200" height="200" fill="white" transform="translate(0.0146484 0.303223)"/>
</clipPath>
</defs>
</svg>
