<svg width="201" height="200" viewBox="0 0 201 200" fill="none" xmlns="http://www.w3.org/2000/svg">
<g clip-path="url(#clip0_58_357)">
<path d="M59.9214 98.2344H36.9584C35.7753 98.2344 34.8154 99.1942 34.8154 100.377V123.739C34.8154 124.922 35.7753 125.882 36.9584 125.882C38.1413 125.882 39.1012 124.922 39.1012 123.739V102.52H59.9214C61.1045 102.52 62.0644 101.56 62.0644 100.377C62.0644 99.1942 61.1045 98.2344 59.9214 98.2344Z" fill="#AC9020"/>
<path d="M36.9584 130.595C35.7753 130.595 34.8154 131.555 34.8154 132.738V135.643C34.8154 136.825 35.7753 137.785 36.9584 137.785C38.1413 137.785 39.1012 136.825 39.1012 135.643V132.738C39.1012 131.555 38.1413 130.595 36.9584 130.595Z" fill="#AC9020"/>
<path d="M134.876 28.745C134.095 29.6352 134.184 30.9912 135.071 31.7696L166.452 59.303C167.34 60.0817 168.694 59.999 169.476 59.1077C170.258 58.2177 170.168 56.8617 169.282 56.0832L137.9 28.5497C137.011 27.7685 135.66 27.8522 134.876 28.745Z" fill="#AC9020"/>
<path d="M126.773 21.6412C125.995 22.5312 126.084 23.8846 126.974 24.6658L128.283 25.8126C129.187 26.599 130.533 26.4927 131.307 25.6116C132.086 24.7216 131.996 23.3683 131.106 22.5871L129.798 21.4403C128.908 20.6647 127.554 20.7483 126.773 21.6412Z" fill="#AC9020"/>
<path d="M95.3738 39.8644C85.9453 39.8644 78.2881 47.5501 78.2881 56.9786C78.2881 66.3788 85.9453 74.0358 95.3738 74.0358C104.774 74.0358 112.431 66.3788 112.431 56.9786C112.431 47.5501 104.774 39.8644 95.3738 39.8644ZM95.3738 69.7501C88.3168 69.7501 82.5738 64.0073 82.5738 56.9786C82.5738 49.8929 88.3168 44.1501 95.3738 44.1501C102.402 44.1501 108.145 49.8929 108.145 56.9786C108.145 64.0073 102.402 69.7501 95.3738 69.7501Z" fill="#181A20"/>
<path d="M70.1148 152.036C70.1148 153.236 69.1435 154.179 67.9719 154.179H64.9719C63.772 154.179 62.8291 153.236 62.8291 152.036C62.8291 150.864 63.772 149.893 64.9719 149.893H67.9719C69.1435 149.893 70.1148 150.864 70.1148 152.036Z" fill="#181A20"/>
<path d="M152.177 129.169H131.34C130.157 129.169 129.197 130.129 129.197 131.312C129.197 132.495 130.157 133.455 131.34 133.455H152.177C153.36 133.455 154.32 132.495 154.32 131.312C154.32 130.129 153.36 129.169 152.177 129.169Z" fill="#AC9020"/>
<path d="M123.961 129.169H123.534C122.351 129.169 121.392 130.129 121.392 131.312C121.392 132.495 122.351 133.455 123.534 133.455H123.961C125.144 133.455 126.104 132.495 126.104 131.312C126.104 130.129 125.144 129.169 123.961 129.169Z" fill="#AC9020"/>
<path d="M186.403 140.549H167.288V91.1214H174.059C180.288 91.1214 183.173 83.4071 178.516 79.3214L99.7734 10.2357C97.2308 8.00721 93.4306 8.00721 90.8878 10.2357L57.6879 39.4072V30.5215H60.8307C62.745 30.5215 64.2879 28.9786 64.2879 27.0928V16.7215C64.2879 14.8356 62.745 13.2929 60.8307 13.2929H26.202C24.2879 13.2929 22.7451 14.8356 22.7451 16.7215V27.0928C22.7451 28.9786 24.2879 30.5215 26.202 30.5215H29.3736V64.2643L12.2021 79.3214C7.54497 83.4356 10.4593 91.1214 16.6593 91.1214H23.4308V187.151H15.9164C14.7451 187.151 13.7736 188.093 13.7736 189.293C13.7736 190.464 14.7451 191.436 15.9164 191.436H16.0879H186.403C189.145 191.436 191.373 189.179 191.373 186.436V145.521C191.373 142.779 189.145 140.549 186.403 140.549ZM27.0308 26.2358V17.5786H60.0021V26.2358H27.0308ZM53.4021 30.5215V43.15L33.6593 60.4928V30.5215H53.4021ZM16.6593 86.8356C14.402 86.8356 13.3449 84.0358 15.0307 82.5499L93.7164 13.4643C94.6306 12.6643 96.0306 12.6643 96.9449 13.4643L175.688 82.5499C177.373 84.0358 176.345 86.8356 174.059 86.8356H16.6593ZM51.3734 120.35V187.151H27.7164V91.1214H163.003V140.549H105.002V120.35C105.002 116.121 101.545 112.664 97.3164 112.664H59.0879C54.8307 112.664 51.3734 116.121 51.3734 120.35ZM100.716 140.607C98.3165 140.949 96.4306 143.093 96.4306 145.521C96.4593 162.521 96.3735 186.293 96.4878 187.151H55.6592V120.35C55.6592 118.493 57.2021 116.95 59.0877 116.95H97.3164C99.1736 116.95 100.716 118.493 100.716 120.35V140.607ZM187.088 186.436C187.088 186.836 186.773 187.151 186.403 187.151H101.402C101.202 187.151 100.745 186.836 100.745 186.464V145.521C100.745 145.151 101.116 144.836 101.402 144.836C103.059 144.864 163.459 144.836 186.403 144.836C186.773 144.836 187.088 145.151 187.088 145.521V186.436Z" fill="#181A20"/>
<path d="M97.3164 116.95H59.0878C57.2022 116.95 55.6592 118.493 55.6592 120.35V187.151H96.4878C96.3734 186.293 96.4593 162.521 96.4306 145.521C96.4306 143.093 98.3165 140.949 100.716 140.607V120.35C100.716 118.493 99.1736 116.95 97.3164 116.95ZM67.9734 154.179H64.9734C63.7736 154.179 62.8306 153.236 62.8306 152.036C62.8306 150.864 63.7736 149.893 64.9734 149.893H67.9734C69.145 149.893 70.1164 150.864 70.1164 152.036C70.1164 153.236 69.145 154.179 67.9734 154.179Z" fill="url(#paint0_linear_58_357)"/>
<path d="M27.0283 17.5773H59.9998V26.2343H27.0283V17.5773Z" fill="url(#paint1_linear_58_357)"/>
<path d="M53.402 30.5215V43.15L33.6592 60.493V30.5215H53.402Z" fill="url(#paint2_linear_58_357)"/>
<path d="M108.144 56.9786C108.144 64.0072 102.401 69.7502 95.3721 69.7502C88.3151 69.7502 82.5723 64.0072 82.5723 56.9786C82.5723 49.893 88.3151 44.15 95.3721 44.15C102.401 44.15 108.144 49.893 108.144 56.9786Z" fill="#DDDDDD"/>
<path d="M118.43 158.407C114.258 158.407 110.858 161.807 110.858 165.979C110.858 170.179 114.258 173.579 118.43 173.579C122.63 173.579 126.001 170.179 126.001 165.979C126.001 161.807 122.63 158.407 118.43 158.407ZM118.43 169.294C116.63 169.294 115.144 167.807 115.144 165.979C115.144 164.179 116.63 162.694 118.43 162.694C120.259 162.694 121.715 164.179 121.715 165.979C121.715 167.807 120.259 169.294 118.43 169.294Z" fill="#181A20"/>
<path d="M121.716 165.979C121.716 167.807 120.259 169.293 118.43 169.293C116.63 169.293 115.145 167.807 115.145 165.979C115.145 164.179 116.63 162.693 118.43 162.693C120.259 162.693 121.716 164.179 121.716 165.979Z" fill="#DDDDDD"/>
<path d="M169.373 158.407C165.203 158.407 161.803 161.807 161.803 165.979C161.803 170.179 165.203 173.579 169.373 173.579C173.545 173.579 176.945 170.179 176.945 165.979C176.945 161.807 173.545 158.407 169.373 158.407ZM169.373 169.294C167.545 169.294 166.088 167.807 166.088 165.979C166.088 164.179 167.545 162.694 169.373 162.694C171.203 162.694 172.659 164.179 172.659 165.979C172.659 167.807 171.203 169.294 169.373 169.294Z" fill="#181A20"/>
<path d="M172.658 165.979C172.658 167.807 171.202 169.293 169.372 169.293C167.544 169.293 166.087 167.807 166.087 165.979C166.087 164.179 167.544 162.693 169.372 162.693C171.202 162.693 172.658 164.179 172.658 165.979Z" fill="#DDDDDD"/>
<path d="M143.904 156.055C146.054 156.055 147.803 157.801 147.803 159.951C147.803 161.133 148.763 162.093 149.946 162.093C151.128 162.093 152.088 161.133 152.088 159.951C152.088 156.185 149.516 153.039 146.048 152.091V150.5C146.048 149.317 145.088 148.357 143.904 148.357C142.722 148.357 141.762 149.317 141.762 150.5V152.091C138.294 153.039 135.722 156.185 135.722 159.951C135.722 164.463 139.394 168.133 143.904 168.133C146.054 168.133 147.803 169.883 147.803 172.032C147.803 174.18 146.054 175.927 143.904 175.927C141.756 175.927 140.007 174.18 140.007 172.032C140.007 170.849 139.047 169.889 137.864 169.889C136.682 169.889 135.722 170.849 135.722 172.032C135.722 175.797 138.294 178.944 141.762 179.892V181.483C141.762 182.665 142.722 183.625 143.904 183.625C145.088 183.625 146.048 182.665 146.048 181.483V179.892C149.516 178.944 152.088 175.797 152.088 172.032C152.088 167.52 148.416 163.848 143.904 163.848C141.756 163.848 140.007 162.099 140.007 159.951C140.007 157.801 141.756 156.055 143.904 156.055Z" fill="#181A20"/>
</g>
<defs>
<linearGradient id="paint0_linear_58_357" x1="78.1878" y1="116.95" x2="78.1878" y2="187.151" gradientUnits="userSpaceOnUse">
<stop stop-color="#DDDDDD" stop-opacity="0"/>
<stop offset="1" stop-color="#DDDDDD"/>
</linearGradient>
<linearGradient id="paint1_linear_58_357" x1="43.5141" y1="17.5773" x2="43.5141" y2="26.2343" gradientUnits="userSpaceOnUse">
<stop stop-color="#DDDDDD" stop-opacity="0"/>
<stop offset="1" stop-color="#DDDDDD"/>
</linearGradient>
<linearGradient id="paint2_linear_58_357" x1="43.5305" y1="30.5215" x2="43.5305" y2="60.493" gradientUnits="userSpaceOnUse">
<stop stop-color="#DDDDDD" stop-opacity="0"/>
<stop offset="1" stop-color="#DDDDDD"/>
</linearGradient>
<clipPath id="clip0_58_357">
<rect width="200" height="200" fill="white" transform="translate(0.640625)"/>
</clipPath>
</defs>
</svg>
