<svg width="306" height="42" viewBox="0 0 306 42" fill="none" xmlns="http://www.w3.org/2000/svg">
<path d="M305.493 28.8454H288.119C288.48 31.5982 290.872 33.5839 294.753 33.5839C296.784 33.5839 299.446 32.8167 300.71 31.508L304.23 34.9829C301.883 37.4199 298.047 38.5932 294.663 38.5932C286.991 38.5932 282.433 33.8547 282.433 26.7243C282.433 19.955 287.036 15.0811 294.256 15.0811C301.703 15.0811 306.351 19.6842 305.493 28.8454ZM288.209 24.2874H300.213C299.852 21.3991 297.596 19.955 294.437 19.955C291.458 19.955 289.021 21.3991 288.209 24.2874Z" fill="#AC9020"/>
<path d="M267.655 10.0715L273.161 9.48486V15.8029H279.298V20.5414H273.115V30.1539C273.115 32.275 274.289 33.3129 276.004 33.3129C276.861 33.3129 277.854 33.0422 278.666 32.636L280.201 37.3294C278.621 37.9612 277.312 38.232 275.643 38.2771C270.814 38.4576 267.655 35.7048 267.655 30.1539V20.5414H263.503V15.8029H267.655V10.0715Z" fill="#AC9020"/>
<path d="M256.241 18.827L256.422 15.7582H261.702V38.0068H256.512L256.241 34.7575C254.977 37.375 251.502 38.6386 249.02 38.6837C242.432 38.7288 237.558 34.6672 237.558 26.8599C237.558 19.188 242.657 15.1716 249.156 15.2167C252.134 15.2167 254.977 16.6157 256.241 18.827ZM249.652 20.1357C245.997 20.1357 243.063 22.6178 243.063 26.8599C243.063 31.1021 245.997 33.6293 249.652 33.6293C258.317 33.6293 258.317 20.1357 249.652 20.1357Z" fill="#AC9020"/>
<path d="M223.013 10.0715L228.519 9.48486V15.8029H234.656V20.5414H228.474V30.1539C228.474 32.275 229.647 33.3129 231.362 33.3129C232.219 33.3129 233.212 33.0422 234.025 32.636L235.559 37.3294C233.98 37.9612 232.671 38.232 231.001 38.2771C226.172 38.4576 223.013 35.7048 223.013 30.1539V20.5414H218.861V15.8029H223.013V10.0715Z" fill="#AC9020"/>
<path d="M216.184 18.0594L213.115 21.6697C211.536 20.1804 209.731 19.684 207.61 19.684C204.992 19.684 203.548 20.4963 203.548 21.8953C203.548 23.3394 204.857 24.1518 207.7 24.3323C211.897 24.603 217.222 25.5508 217.222 31.4626C217.222 35.3889 214.018 38.7735 207.655 38.7735C204.135 38.7735 200.615 38.1868 197.365 34.8022L200.073 30.876C201.652 32.636 205.263 33.9447 207.745 33.9899C209.821 34.035 211.761 32.9519 211.761 31.3273C211.761 29.7929 210.498 29.1611 207.339 28.9806C203.142 28.6646 198.132 27.1303 198.132 22.0758C198.132 16.9311 203.458 15.126 207.519 15.126C210.994 15.126 213.612 15.8029 216.184 18.0594Z" fill="#AC9020"/>
<path d="M155.879 15.6676V38.0064H150.373V15.6676H155.879ZM149.877 9.48497C149.877 13.7722 156.376 13.7722 156.376 9.48497C156.376 5.19772 149.877 5.19772 149.877 9.48497Z" fill="#252525"/>
<path d="M145.807 18.0594L142.738 21.6697C141.159 20.1804 139.354 19.684 137.233 19.684C134.615 19.684 133.171 20.4963 133.171 21.8953C133.171 23.3394 134.48 24.1518 137.323 24.3323C141.52 24.603 146.845 25.5508 146.845 31.4626C146.845 35.3889 143.641 38.7735 137.278 38.7735C133.758 38.7735 130.238 38.1868 126.988 34.8022L129.696 30.876C131.276 32.636 134.886 33.9447 137.368 33.9899C139.444 34.035 141.384 32.9519 141.384 31.3273C141.384 29.7929 140.121 29.1611 136.962 28.9806C132.765 28.6646 127.755 27.1303 127.755 22.0758C127.755 16.9311 133.081 15.126 137.142 15.126C140.617 15.126 143.235 15.8029 145.807 18.0594Z" fill="#252525"/>
<path d="M117.937 6.46191H123.397V38.007H117.937V6.46191Z" fill="#252525"/>
<path d="M107.811 18.827L107.992 15.7582H113.272V38.0068H108.082L107.811 34.7575C106.548 37.375 103.073 38.6386 100.591 38.6837C94.0019 38.7288 89.1279 34.6672 89.1279 26.8599C89.1279 19.188 94.2275 15.1716 100.726 15.2167C103.705 15.2167 106.548 16.6157 107.811 18.827ZM101.222 20.1357C97.567 20.1357 94.6337 22.6178 94.6337 26.8599C94.6337 31.1021 97.567 33.6293 101.222 33.6293C109.887 33.6293 109.887 20.1357 101.222 20.1357Z" fill="#252525"/>
<path d="M87.4249 6.41748V6.598L73.3899 21.7162L88.5983 37.6467V38.0077H81.2423L68.0195 24.0178V38.0077H62.0625V6.41748H68.0195V19.7756L80.0238 6.41748H87.4249Z" fill="#252525"/>
<path fill-rule="evenodd" clip-rule="evenodd" d="M172.234 38.0059H195.238L191.477 32.4185H172.234V38.0059ZM172.234 25.6276H189.65V20.3411H172.234V25.6276ZM172.234 13.4214H191.477L195.238 7.91992H172.234V13.4214Z" fill="#AC9020"/>
<path fill-rule="evenodd" clip-rule="evenodd" d="M0 0H42.7336V42C40.1047 41.1255 37.1202 40.4049 33.8747 39.8745L33.8666 10.1207C33.8666 9.99135 33.821 9.88355 33.7299 9.7973L23.7164 3.92531C23.6948 3.90491 23.668 3.89154 23.6394 3.8868C23.6107 3.88205 23.5813 3.88613 23.5548 3.89856C23.5283 3.91098 23.5057 3.93121 23.4899 3.95682C23.474 3.98243 23.4655 4.01233 23.4654 4.04292V27.9243L25.8455 29.2935V38.9979C24.1741 38.8997 22.4622 38.8487 20.7194 38.8487C19.2492 38.8487 17.801 38.885 16.3805 38.9553V23.8487L20.2505 26.075L20.2461 11.8876C20.2458 11.8656 20.2395 11.844 20.2281 11.8255C20.2166 11.807 20.2005 11.7923 20.1816 11.7833C20.1627 11.7743 20.1419 11.7713 20.1217 11.7747C20.1015 11.7781 20.0827 11.7877 20.0676 11.8024L9.95649 19.4563C9.92218 19.4896 9.8948 19.5301 9.87607 19.5751C9.85735 19.6202 9.84769 19.6688 9.8477 19.718L9.85032 39.5383C6.25452 40.0098 2.93243 40.7087 0 41.5904V0Z" fill="#AC9020"/>
</svg>
