<svg width="82" height="82" viewBox="0 0 82 82" fill="none" xmlns="http://www.w3.org/2000/svg">
<rect x="0.5" y="0.5" width="81" height="81" rx="40.5" stroke="url(#paint0_linear_81_435)"/>
<rect x="0.5" y="0.5" width="81" height="81" rx="40.5" stroke="url(#paint1_linear_81_435)"/>
<rect x="10.5" y="10.5" width="61" height="61" rx="30.5" stroke="url(#paint2_linear_81_435)"/>
<rect x="10.5" y="10.5" width="61" height="61" rx="30.5" stroke="url(#paint3_linear_81_435)"/>
<path fill-rule="evenodd" clip-rule="evenodd" d="M25.7002 28.6749C25.7002 27.9707 26.271 27.3999 26.9752 27.3999H44.8252C45.5294 27.3999 46.1002 27.9707 46.1002 28.6749C46.1002 29.3791 45.5294 29.9499 44.8252 29.9499H44.4002V53.3249C44.4002 54.0291 43.8294 54.5999 43.1252 54.5999H40.5752C39.871 54.5999 39.3002 54.0291 39.3002 53.3249V49.0749C39.3002 48.3707 38.7294 47.7999 38.0252 47.7999H33.7752C33.071 47.7999 32.5002 48.3707 32.5002 49.0749V53.3249C32.5002 54.0291 31.9294 54.5999 31.2252 54.5999H26.9752C26.271 54.5999 25.7002 54.0291 25.7002 53.3249C25.7002 52.6207 26.271 52.0499 26.9752 52.0499H27.4002V29.9499H26.9752C26.271 29.9499 25.7002 29.3791 25.7002 28.6749ZM30.8002 33.3499C30.8002 32.8805 31.1808 32.4999 31.6502 32.4999H33.3502C33.8196 32.4999 34.2002 32.8805 34.2002 33.3499V35.0499C34.2002 35.5193 33.8196 35.8999 33.3502 35.8999H31.6502C31.1808 35.8999 30.8002 35.5193 30.8002 35.0499V33.3499ZM31.6502 39.2999C31.1808 39.2999 30.8002 39.6805 30.8002 40.1499V41.8499C30.8002 42.3193 31.1808 42.6999 31.6502 42.6999H33.3502C33.8196 42.6999 34.2002 42.3193 34.2002 41.8499V40.1499C34.2002 39.6805 33.8196 39.2999 33.3502 39.2999H31.6502ZM37.6002 33.3499C37.6002 32.8805 37.9808 32.4999 38.4502 32.4999H40.1502C40.6196 32.4999 41.0002 32.8805 41.0002 33.3499V35.0499C41.0002 35.5193 40.6196 35.8999 40.1502 35.8999H38.4502C37.9808 35.8999 37.6002 35.5193 37.6002 35.0499V33.3499ZM38.4502 39.2999C37.9808 39.2999 37.6002 39.6805 37.6002 40.1499V41.8499C37.6002 42.3193 37.9808 42.6999 38.4502 42.6999H40.1502C40.6196 42.6999 41.0002 42.3193 41.0002 41.8499V40.1499C41.0002 39.6805 40.6196 39.2999 40.1502 39.2999H38.4502Z" fill="#AC9020"/>
<path fill-rule="evenodd" clip-rule="evenodd" d="M48.2252 34.1999C47.521 34.1999 46.9502 34.7707 46.9502 35.4749V52.8999C46.9502 53.8388 47.7113 54.5999 48.6502 54.5999H55.0252C55.7294 54.5999 56.3002 54.0291 56.3002 53.3249C56.3002 52.6207 55.7294 52.0499 55.0252 52.0499H54.6002V36.7499H55.0252C55.7294 36.7499 56.3002 36.1791 56.3002 35.4749C56.3002 34.7707 55.7294 34.1999 55.0252 34.1999H48.2252ZM49.0752 40.1499C49.0752 39.6805 49.4558 39.2999 49.9252 39.2999H51.6252C52.0946 39.2999 52.4752 39.6805 52.4752 40.1499V41.8499C52.4752 42.3193 52.0946 42.6999 51.6252 42.6999H49.9252C49.4558 42.6999 49.0752 42.3193 49.0752 41.8499V40.1499ZM49.9252 46.0999C49.4558 46.0999 49.0752 46.4805 49.0752 46.9499V48.6499C49.0752 49.1193 49.4558 49.4999 49.9252 49.4999H51.6252C52.0946 49.4999 52.4752 49.1193 52.4752 48.6499V46.9499C52.4752 46.4805 52.0946 46.0999 51.6252 46.0999H49.9252Z" fill="#AC9020"/>
<defs>
<linearGradient id="paint0_linear_81_435" x1="6.75" y1="86.5" x2="85.75" y2="-5.5" gradientUnits="userSpaceOnUse">
<stop stop-color="#AC9020"/>
<stop offset="0.323723" stop-color="#AC9020" stop-opacity="0"/>
</linearGradient>
<linearGradient id="paint1_linear_81_435" x1="81.75" y1="-10.5" x2="6.75" y2="82" gradientUnits="userSpaceOnUse">
<stop stop-color="#AC9020"/>
<stop offset="0.576615" stop-color="#AC9020" stop-opacity="0"/>
</linearGradient>
<linearGradient id="paint2_linear_81_435" x1="3.25" y1="13.5" x2="71.75" y2="72" gradientUnits="userSpaceOnUse">
<stop stop-color="#AC9020"/>
<stop offset="0.323723" stop-color="#AC9020" stop-opacity="0"/>
</linearGradient>
<linearGradient id="paint3_linear_81_435" x1="84.25" y1="86" x2="12.25" y2="35" gradientUnits="userSpaceOnUse">
<stop stop-color="#AC9020"/>
<stop offset="0.576615" stop-color="#AC9020" stop-opacity="0"/>
</linearGradient>
</defs>
</svg>
